<svg xmlns="http://www.w3.org/2000/svg" viewBox="0 0 24 24"><title>link</title><g id="link"><path id="link-2" data-name="link" d="M21.18,17.65a1.36,1.36,0,0,0-.41-1l-3.06-3.06a1.36,1.36,0,0,0-1-.41,1.4,1.4,0,0,0-1.06.47l.28.27.32.32.22.28a1.18,1.18,0,0,1,.19.37,1.49,1.49,0,0,1,.05.4,1.41,1.41,0,0,1-1.41,1.41,1.48,1.48,0,0,1-.4-.05,1.19,1.19,0,0,1-.37-.19l-.28-.22-.32-.32-.27-.28a1.43,1.43,0,0,0-.49,1.07,1.36,1.36,0,0,0,.41,1l3,3a1.36,1.36,0,0,0,1,.4,1.42,1.42,0,0,0,1-.38l2.16-2.15a1.34,1.34,0,0,0,.41-1ZM10.84,7.28a1.36,1.36,0,0,0-.41-1l-3-3a1.36,1.36,0,0,0-1-.41,1.42,1.42,0,0,0-1,.4L3.23,5.37a1.34,1.34,0,0,0-.41,1,1.36,1.36,0,0,0,.41,1l3.06,3.06a1.36,1.36,0,0,0,1,.4,1.42,1.42,0,0,0,1.06-.46l-.28-.27-.32-.32-.22-.28a1.18,1.18,0,0,1-.19-.37,1.49,1.49,0,0,1-.05-.4A1.41,1.41,0,0,1,8.7,7.29a1.48,1.48,0,0,1,.4.05,1.19,1.19,0,0,1,.37.19l.28.22.32.32.27.28a1.43,1.43,0,0,0,.49-1.07ZM24,17.65a4,4,0,0,1-1.25,3l-2.16,2.15a4.24,4.24,0,0,1-6,0l-3-3a4.06,4.06,0,0,1-1.22-3,4.14,4.14,0,0,1,1.29-3.07l-1.29-1.29a4.12,4.12,0,0,1-3.06,1.29,4.08,4.08,0,0,1-3-1.24L1.24,9.35A4.08,4.08,0,0,1,0,6.35a4,4,0,0,1,1.25-3L3.41,1.22A4.06,4.06,0,0,1,6.4,0a4,4,0,0,1,3,1.25l3,3a4.06,4.06,0,0,1,1.22,3,4.14,4.14,0,0,1-1.29,3.07l1.29,1.29a4.26,4.26,0,0,1,6.06-.06l3.06,3.06A4.08,4.08,0,0,1,24,17.65Z"/></g></svg>