<svg id="warning" xmlns="http://www.w3.org/2000/svg" viewBox="0 0 24 24"><title>link-warning</title><g id="link"><path id="lower" d="M22.76,14.65l-3.06-3.06A4.06,4.06,0,0,0,17,10.38l2.95,5.41.87.87a1.36,1.36,0,0,1,.41,1h0a1.34,1.34,0,0,1-.41,1L18.6,20.78a1.42,1.42,0,0,1-1,.38,1.36,1.36,0,0,1-1-.4L15.84,20h-4l2.74,2.75a4.24,4.24,0,0,0,6,0l2.16-2.15a4,4,0,0,0,1.25-3A4.08,4.08,0,0,0,22.76,14.65Z"/><path id="upper" d="M5.48,13.24l1.37-2.51a1.3,1.3,0,0,1-.56-.32L3.23,7.35a1.36,1.36,0,0,1-.41-1,1.34,1.34,0,0,1,.41-1L5.4,3.22a1.42,1.42,0,0,1,1-.4,1.36,1.36,0,0,1,1,.41l2.29,2.3.13-.23a2.48,2.48,0,0,1,.91-.95A2.45,2.45,0,0,1,12,4l.16,0L9.4,1.25A4,4,0,0,0,6.4,0a4.06,4.06,0,0,0-3,1.22L1.25,3.37A4,4,0,0,0,0,6.35a4.08,4.08,0,0,0,1.24,3l3.06,3.06A4.2,4.2,0,0,0,5.48,13.24Z"/></g><g id="foreground"><path d="M13,16.24V14.76a.25.25,0,0,0-.07-.18.24.24,0,0,0-.18-.07h-1.5a.24.24,0,0,0-.18.07.25.25,0,0,0-.07.18v1.48a.25.25,0,0,0,.07.18.24.24,0,0,0,.18.07h1.5a.24.24,0,0,0,.18-.07A.25.25,0,0,0,13,16.24Zm0-2.92.14-3.59A.17.17,0,0,0,13,9.59a.3.3,0,0,0-.19-.09H11.14a.3.3,0,0,0-.19.09.19.19,0,0,0-.08.16L11,13.32a.15.15,0,0,0,.08.13.34.34,0,0,0,.19.05h1.44a.32.32,0,0,0,.18-.05.17.17,0,0,0,.08-.13ZM12.87,6l6,11a.93.93,0,0,1,0,1,1,1,0,0,1-.86.49H6A1,1,0,0,1,5.15,18a.93.93,0,0,1,0-1l6-11a1,1,0,0,1,.37-.38,1,1,0,0,1,1,0,1,1,0,0,1,.37.38Z"/></g></svg>