<svg xmlns="http://www.w3.org/2000/svg" viewBox="0 0 24 24"><title>link-lock</title><g id="lock"><g id="link"><path id="lower" d="M22.76,14.65l-3.06-3.06a4.45,4.45,0,0,0-.5-.41,2.51,2.51,0,0,1,.29,1.17v3l1.26,1.26a1.36,1.36,0,0,1,.41,1h0a1.34,1.34,0,0,1-.41,1L18.6,20.78A1.45,1.45,0,0,1,17,21h-4.1l1.74,1.75a4.24,4.24,0,0,0,6,0l2.16-2.15a4,4,0,0,0,1.25-3A4.08,4.08,0,0,0,22.76,14.65Z"/><path id="upper" d="M4.5,12.34a2.49,2.49,0,0,1,.72-1.77,2.52,2.52,0,0,1,.61-.46V10l-2.6-2.6a1.36,1.36,0,0,1-.41-1,1.34,1.34,0,0,1,.41-1L5.4,3.22a1.42,1.42,0,0,1,1-.4,1.36,1.36,0,0,1,1,.41l1,1a5.78,5.78,0,0,1,2.82-1.16L9.4,1.25A4,4,0,0,0,6.4,0a4.06,4.06,0,0,0-3,1.22L1.25,3.37A4,4,0,0,0,0,6.35a4.08,4.08,0,0,0,1.24,3l3.06,3.06c.07.07.14.11.21.17Z"/></g><g id="badge"><path d="M9.33,11.32h5.33v-2a2.66,2.66,0,0,0-.78-1.93,2.62,2.62,0,0,0-3.77,0,2.66,2.66,0,0,0-.78,1.93v2Zm8.67,1v6.14a1,1,0,0,1-.29.72,1,1,0,0,1-.71.3H7a1,1,0,0,1-.71-.3A1,1,0,0,1,6,18.48V12.34a1,1,0,0,1,.29-.72,1,1,0,0,1,.71-.3h.33v-2A4.65,4.65,0,0,1,8.71,5.91a4.56,4.56,0,0,1,6.58,0,4.65,4.65,0,0,1,1.37,3.37v2H17a1,1,0,0,1,.71.3,1,1,0,0,1,.29.72Z"/></g></g></svg>