<svg xmlns="http://www.w3.org/2000/svg" viewBox="0 0 24 24"><title>link-redirect</title><g id="redirect"><g id="link"><path id="lower" d="M22.76,14.65l-3.06-3.06c-.1-.1-.22-.18-.33-.27A2,2,0,0,1,19,13.4l-.69.75,2.5,2.5a1.36,1.36,0,0,1,.41,1h0a1.34,1.34,0,0,1-.41,1L18.6,20.78a1.42,1.42,0,0,1-1,.38,1.36,1.36,0,0,1-1-.4l-2.3-2.31-.87.95a1.74,1.74,0,0,1-1.3.61,1.61,1.61,0,0,1-.3,0l2.77,2.78a4.24,4.24,0,0,0,6,0l2.16-2.15a4,4,0,0,0,1.25-3A4.08,4.08,0,0,0,22.76,14.65Z"/><path id="upper" d="M4.5,8.62,3.23,7.35a1.36,1.36,0,0,1-.41-1,1.34,1.34,0,0,1,.41-1L5.4,3.22a1.42,1.42,0,0,1,1-.4,1.36,1.36,0,0,1,1,.41l3,3s0,.05.05.08V5.78a1.74,1.74,0,0,1,.93-1.61A1.62,1.62,0,0,1,12.13,4h0L9.4,1.25A4,4,0,0,0,6.4,0a4.06,4.06,0,0,0-3,1.22L1.25,3.37A4,4,0,0,0,0,6.35a4.08,4.08,0,0,0,1.24,3l3.06,3.06c.07.07.14.11.21.17Z"/></g><path id="badge" d="M6.35,18.38q-.15.16-.25.11T6,18.22V5.78q0-.22.1-.27t.25.11l5.53,6a.54.54,0,0,1,.1.16v-6q0-.22.1-.27t.25.11l5.53,6a.56.56,0,0,1,0,.76l-5.53,6q-.15.16-.25.11t-.1-.27v-6a.73.73,0,0,1-.1.16Z"/></g></svg>