<svg width="32" height="32" xmlns="http://www.w3.org/2000/svg">

 <g>
  <title>background</title>
  <rect fill="none" id="canvas_background" height="34" width="34" y="-1" x="-1"/>
 </g>
 <g>
  <title>Layer 1</title>
  <path id="svg_1" d="m11.4285,14.8565l9.143,0l0,-3.429q0,-1.893 -1.339,-3.232t-3.232,-1.339t-3.232,1.339t-1.339,3.232l0,3.429l-0.001,0zm14.857,1.715l0,10.286q0,0.714 -0.5,1.214t-1.214,0.5l-17.143,0q-0.714,0 -1.214,-0.5t-0.5,-1.214l0,-10.286q0,-0.714 0.5,-1.214t1.214,-0.5l0.571,0l0,-3.429q0,-3.286 2.357,-5.643t5.643,-2.357t5.643,2.357t2.357,5.643l0,3.429l0.571,0q0.714,0 1.214,0.5t0.5,1.214l0.001,0z" fill="#000"/>
 </g>
</svg>