<svg width="32" height="32" xmlns="http://www.w3.org/2000/svg">

 <g>
  <title>background</title>
  <rect fill="none" id="canvas_background" height="34" width="34" y="-1" x="-1"/>
 </g>
 <g>
  <title>Layer 1</title>
  <path id="svg_1" d="m24.5715,16q0.714,0 1.214,0.5t0.5,1.214l0,10.286q0,0.714 -0.5,1.214t-1.214,0.5l-17.143,0q-0.714,0 -1.214,-0.5t-0.5,-1.214l0,-10.286q0,-0.714 0.5,-1.214t1.214,-0.5l0.571,0l0,-5.714q0,-3.304 2.348,-5.652t5.652,-2.348t5.652,2.348t2.348,5.652q0,0.464 -0.339,0.804t-0.804,0.339l-1.143,0q-0.464,0 -0.804,-0.339t-0.339,-0.804q0,-1.893 -1.339,-3.232t-3.232,-1.339t-3.232,1.339t-1.339,3.232l0,5.714l13.143,0z" fill="#000"/>
 </g>
</svg>